<mxfile host="app.diagrams.net" agent="Mozilla/5.0 (Macintosh; Intel Mac OS X 10_15_7) AppleWebKit/537.36 (KHTML, like Gecko) Chrome/138.0.0.0 Safari/537.36" version="27.1.6">
  <diagram name="第 1 页" id="x_Ubj81spx02BS_rn2Yc">
    <mxGraphModel dx="935" dy="576" grid="1" gridSize="10" guides="1" tooltips="1" connect="1" arrows="1" fold="1" page="1" pageScale="1" pageWidth="827" pageHeight="1169" math="0" shadow="0">
      <root>
        <mxCell id="0" />
        <mxCell id="1" parent="0" />
        <mxCell id="qj1Oe912X-09bVJ9G56S-1" value="" style="shape=table;startSize=0;container=1;collapsible=0;childLayout=tableLayout;fontSize=16;fillColor=#fff2cc;strokeColor=#d6b656;" vertex="1" parent="1">
          <mxGeometry x="360" y="80" width="160" height="40" as="geometry" />
        </mxCell>
        <mxCell id="qj1Oe912X-09bVJ9G56S-2" value="" style="shape=tableRow;horizontal=0;startSize=0;swimlaneHead=0;swimlaneBody=0;strokeColor=inherit;top=0;left=0;bottom=0;right=0;collapsible=0;dropTarget=0;fillColor=none;points=[[0,0.5],[1,0.5]];portConstraint=eastwest;fontSize=16;" vertex="1" parent="qj1Oe912X-09bVJ9G56S-1">
          <mxGeometry width="160" height="40" as="geometry" />
        </mxCell>
        <mxCell id="qj1Oe912X-09bVJ9G56S-3" value="1" style="shape=partialRectangle;html=1;whiteSpace=wrap;connectable=0;strokeColor=inherit;overflow=hidden;fillColor=none;top=0;left=0;bottom=0;right=0;pointerEvents=1;fontSize=16;" vertex="1" parent="qj1Oe912X-09bVJ9G56S-2">
          <mxGeometry width="40" height="40" as="geometry">
            <mxRectangle width="40" height="40" as="alternateBounds" />
          </mxGeometry>
        </mxCell>
        <mxCell id="qj1Oe912X-09bVJ9G56S-4" value="2" style="shape=partialRectangle;html=1;whiteSpace=wrap;connectable=0;strokeColor=inherit;overflow=hidden;fillColor=none;top=0;left=0;bottom=0;right=0;pointerEvents=1;fontSize=16;" vertex="1" parent="qj1Oe912X-09bVJ9G56S-2">
          <mxGeometry x="40" width="40" height="40" as="geometry">
            <mxRectangle width="40" height="40" as="alternateBounds" />
          </mxGeometry>
        </mxCell>
        <mxCell id="qj1Oe912X-09bVJ9G56S-5" value="3" style="shape=partialRectangle;html=1;whiteSpace=wrap;connectable=0;strokeColor=inherit;overflow=hidden;fillColor=none;top=0;left=0;bottom=0;right=0;pointerEvents=1;fontSize=16;" vertex="1" parent="qj1Oe912X-09bVJ9G56S-2">
          <mxGeometry x="80" width="40" height="40" as="geometry">
            <mxRectangle width="40" height="40" as="alternateBounds" />
          </mxGeometry>
        </mxCell>
        <mxCell id="qj1Oe912X-09bVJ9G56S-19" value="4" style="shape=partialRectangle;html=1;whiteSpace=wrap;connectable=0;strokeColor=inherit;overflow=hidden;fillColor=none;top=0;left=0;bottom=0;right=0;pointerEvents=1;fontSize=16;" vertex="1" parent="qj1Oe912X-09bVJ9G56S-2">
          <mxGeometry x="120" width="40" height="40" as="geometry">
            <mxRectangle width="40" height="40" as="alternateBounds" />
          </mxGeometry>
        </mxCell>
        <mxCell id="qj1Oe912X-09bVJ9G56S-14" value="" style="shape=table;startSize=0;container=1;collapsible=0;childLayout=tableLayout;fontSize=16;fillColor=#ffe6cc;strokeColor=#d79b00;" vertex="1" parent="1">
          <mxGeometry x="360" y="120" width="80" height="40" as="geometry" />
        </mxCell>
        <mxCell id="qj1Oe912X-09bVJ9G56S-15" value="" style="shape=tableRow;horizontal=0;startSize=0;swimlaneHead=0;swimlaneBody=0;strokeColor=inherit;top=0;left=0;bottom=0;right=0;collapsible=0;dropTarget=0;fillColor=none;points=[[0,0.5],[1,0.5]];portConstraint=eastwest;fontSize=16;" vertex="1" parent="qj1Oe912X-09bVJ9G56S-14">
          <mxGeometry width="80" height="40" as="geometry" />
        </mxCell>
        <mxCell id="qj1Oe912X-09bVJ9G56S-16" value="1" style="shape=partialRectangle;html=1;whiteSpace=wrap;connectable=0;strokeColor=inherit;overflow=hidden;fillColor=none;top=0;left=0;bottom=0;right=0;pointerEvents=1;fontSize=16;" vertex="1" parent="qj1Oe912X-09bVJ9G56S-15">
          <mxGeometry width="40" height="40" as="geometry">
            <mxRectangle width="40" height="40" as="alternateBounds" />
          </mxGeometry>
        </mxCell>
        <mxCell id="qj1Oe912X-09bVJ9G56S-17" value="2" style="shape=partialRectangle;html=1;whiteSpace=wrap;connectable=0;strokeColor=inherit;overflow=hidden;fillColor=none;top=0;left=0;bottom=0;right=0;pointerEvents=1;fontSize=16;" vertex="1" parent="qj1Oe912X-09bVJ9G56S-15">
          <mxGeometry x="40" width="40" height="40" as="geometry">
            <mxRectangle width="40" height="40" as="alternateBounds" />
          </mxGeometry>
        </mxCell>
        <mxCell id="qj1Oe912X-09bVJ9G56S-20" value="Person" style="text;html=1;align=center;verticalAlign=middle;whiteSpace=wrap;rounded=0;" vertex="1" parent="1">
          <mxGeometry x="290" y="85" width="60" height="30" as="geometry" />
        </mxCell>
        <mxCell id="qj1Oe912X-09bVJ9G56S-21" value="Software" style="text;html=1;align=center;verticalAlign=middle;whiteSpace=wrap;rounded=0;" vertex="1" parent="1">
          <mxGeometry x="290" y="125" width="60" height="30" as="geometry" />
        </mxCell>
        <mxCell id="qj1Oe912X-09bVJ9G56S-88" style="edgeStyle=orthogonalEdgeStyle;rounded=0;orthogonalLoop=1;jettySize=auto;html=1;" edge="1" parent="1" source="qj1Oe912X-09bVJ9G56S-22" target="qj1Oe912X-09bVJ9G56S-75">
          <mxGeometry relative="1" as="geometry" />
        </mxCell>
        <mxCell id="qj1Oe912X-09bVJ9G56S-22" value="" style="swimlane;startSize=0;" vertex="1" parent="1">
          <mxGeometry x="470" y="200" width="150" height="100" as="geometry" />
        </mxCell>
        <mxCell id="qj1Oe912X-09bVJ9G56S-53" value="" style="endArrow=classic;html=1;rounded=0;" edge="1" parent="qj1Oe912X-09bVJ9G56S-22">
          <mxGeometry width="50" height="50" relative="1" as="geometry">
            <mxPoint x="30" y="29.72999999999999" as="sourcePoint" />
            <mxPoint x="120" y="29.72999999999999" as="targetPoint" />
          </mxGeometry>
        </mxCell>
        <mxCell id="qj1Oe912X-09bVJ9G56S-55" value="(1,2)" style="edgeLabel;html=1;align=center;verticalAlign=middle;resizable=0;points=[];" vertex="1" connectable="0" parent="qj1Oe912X-09bVJ9G56S-53">
          <mxGeometry x="-0.3447" y="-1" relative="1" as="geometry">
            <mxPoint x="15" y="-1" as="offset" />
          </mxGeometry>
        </mxCell>
        <mxCell id="qj1Oe912X-09bVJ9G56S-54" value="" style="endArrow=classic;html=1;rounded=0;" edge="1" parent="qj1Oe912X-09bVJ9G56S-22">
          <mxGeometry width="50" height="50" relative="1" as="geometry">
            <mxPoint x="30" y="30" as="sourcePoint" />
            <mxPoint x="120" y="69.73000000000002" as="targetPoint" />
          </mxGeometry>
        </mxCell>
        <mxCell id="qj1Oe912X-09bVJ9G56S-56" value="(1,4)" style="edgeLabel;html=1;align=center;verticalAlign=middle;resizable=0;points=[];" vertex="1" connectable="0" parent="qj1Oe912X-09bVJ9G56S-54">
          <mxGeometry x="-0.0449" y="1" relative="1" as="geometry">
            <mxPoint as="offset" />
          </mxGeometry>
        </mxCell>
        <mxCell id="qj1Oe912X-09bVJ9G56S-85" style="edgeStyle=orthogonalEdgeStyle;rounded=0;orthogonalLoop=1;jettySize=auto;html=1;entryX=0.5;entryY=0;entryDx=0;entryDy=0;" edge="1" parent="1" source="qj1Oe912X-09bVJ9G56S-25" target="qj1Oe912X-09bVJ9G56S-51">
          <mxGeometry relative="1" as="geometry" />
        </mxCell>
        <mxCell id="qj1Oe912X-09bVJ9G56S-86" style="edgeStyle=orthogonalEdgeStyle;rounded=0;orthogonalLoop=1;jettySize=auto;html=1;" edge="1" parent="1" source="qj1Oe912X-09bVJ9G56S-25" target="qj1Oe912X-09bVJ9G56S-22">
          <mxGeometry relative="1" as="geometry" />
        </mxCell>
        <mxCell id="qj1Oe912X-09bVJ9G56S-25" value="" style="swimlane;startSize=0;" vertex="1" parent="1">
          <mxGeometry x="290" y="70" width="240" height="100" as="geometry" />
        </mxCell>
        <mxCell id="qj1Oe912X-09bVJ9G56S-39" value="" style="shape=table;startSize=0;container=1;collapsible=0;childLayout=tableLayout;fontSize=16;fillColor=#fff2cc;strokeColor=#d6b656;" vertex="1" parent="1">
          <mxGeometry x="220" y="210" width="160" height="40" as="geometry" />
        </mxCell>
        <mxCell id="qj1Oe912X-09bVJ9G56S-40" value="" style="shape=tableRow;horizontal=0;startSize=0;swimlaneHead=0;swimlaneBody=0;strokeColor=inherit;top=0;left=0;bottom=0;right=0;collapsible=0;dropTarget=0;fillColor=none;points=[[0,0.5],[1,0.5]];portConstraint=eastwest;fontSize=16;" vertex="1" parent="qj1Oe912X-09bVJ9G56S-39">
          <mxGeometry width="160" height="40" as="geometry" />
        </mxCell>
        <mxCell id="qj1Oe912X-09bVJ9G56S-41" value="1" style="shape=partialRectangle;html=1;whiteSpace=wrap;connectable=0;strokeColor=inherit;overflow=hidden;fillColor=none;top=0;left=0;bottom=0;right=0;pointerEvents=1;fontSize=16;" vertex="1" parent="qj1Oe912X-09bVJ9G56S-40">
          <mxGeometry width="40" height="40" as="geometry">
            <mxRectangle width="40" height="40" as="alternateBounds" />
          </mxGeometry>
        </mxCell>
        <mxCell id="qj1Oe912X-09bVJ9G56S-42" value="2" style="shape=partialRectangle;html=1;whiteSpace=wrap;connectable=0;strokeColor=inherit;overflow=hidden;fillColor=none;top=0;left=0;bottom=0;right=0;pointerEvents=1;fontSize=16;" vertex="1" parent="qj1Oe912X-09bVJ9G56S-40">
          <mxGeometry x="40" width="40" height="40" as="geometry">
            <mxRectangle width="40" height="40" as="alternateBounds" />
          </mxGeometry>
        </mxCell>
        <mxCell id="qj1Oe912X-09bVJ9G56S-43" value="4" style="shape=partialRectangle;html=1;whiteSpace=wrap;connectable=0;strokeColor=inherit;overflow=hidden;fillColor=none;top=0;left=0;bottom=0;right=0;pointerEvents=1;fontSize=16;" vertex="1" parent="qj1Oe912X-09bVJ9G56S-40">
          <mxGeometry x="80" width="40" height="40" as="geometry">
            <mxRectangle width="40" height="40" as="alternateBounds" />
          </mxGeometry>
        </mxCell>
        <mxCell id="qj1Oe912X-09bVJ9G56S-44" value="6" style="shape=partialRectangle;html=1;whiteSpace=wrap;connectable=0;strokeColor=inherit;overflow=hidden;fillColor=none;top=0;left=0;bottom=0;right=0;pointerEvents=1;fontSize=16;" vertex="1" parent="qj1Oe912X-09bVJ9G56S-40">
          <mxGeometry x="120" width="40" height="40" as="geometry">
            <mxRectangle width="40" height="40" as="alternateBounds" />
          </mxGeometry>
        </mxCell>
        <mxCell id="qj1Oe912X-09bVJ9G56S-45" value="" style="shape=table;startSize=0;container=1;collapsible=0;childLayout=tableLayout;fontSize=16;fillColor=#ffe6cc;strokeColor=#d79b00;" vertex="1" parent="1">
          <mxGeometry x="220" y="250" width="80" height="40" as="geometry" />
        </mxCell>
        <mxCell id="qj1Oe912X-09bVJ9G56S-46" value="" style="shape=tableRow;horizontal=0;startSize=0;swimlaneHead=0;swimlaneBody=0;strokeColor=inherit;top=0;left=0;bottom=0;right=0;collapsible=0;dropTarget=0;fillColor=none;points=[[0,0.5],[1,0.5]];portConstraint=eastwest;fontSize=16;" vertex="1" parent="qj1Oe912X-09bVJ9G56S-45">
          <mxGeometry width="80" height="40" as="geometry" />
        </mxCell>
        <mxCell id="qj1Oe912X-09bVJ9G56S-47" value="3" style="shape=partialRectangle;html=1;whiteSpace=wrap;connectable=0;strokeColor=inherit;overflow=hidden;fillColor=none;top=0;left=0;bottom=0;right=0;pointerEvents=1;fontSize=16;" vertex="1" parent="qj1Oe912X-09bVJ9G56S-46">
          <mxGeometry width="40" height="40" as="geometry">
            <mxRectangle width="40" height="40" as="alternateBounds" />
          </mxGeometry>
        </mxCell>
        <mxCell id="qj1Oe912X-09bVJ9G56S-48" value="5" style="shape=partialRectangle;html=1;whiteSpace=wrap;connectable=0;strokeColor=inherit;overflow=hidden;fillColor=none;top=0;left=0;bottom=0;right=0;pointerEvents=1;fontSize=16;" vertex="1" parent="qj1Oe912X-09bVJ9G56S-46">
          <mxGeometry x="40" width="40" height="40" as="geometry">
            <mxRectangle width="40" height="40" as="alternateBounds" />
          </mxGeometry>
        </mxCell>
        <mxCell id="qj1Oe912X-09bVJ9G56S-49" value="Person" style="text;html=1;align=center;verticalAlign=middle;whiteSpace=wrap;rounded=0;" vertex="1" parent="1">
          <mxGeometry x="150" y="215" width="60" height="30" as="geometry" />
        </mxCell>
        <mxCell id="qj1Oe912X-09bVJ9G56S-50" value="Software" style="text;html=1;align=center;verticalAlign=middle;whiteSpace=wrap;rounded=0;" vertex="1" parent="1">
          <mxGeometry x="150" y="255" width="60" height="30" as="geometry" />
        </mxCell>
        <mxCell id="qj1Oe912X-09bVJ9G56S-87" style="edgeStyle=orthogonalEdgeStyle;rounded=0;orthogonalLoop=1;jettySize=auto;html=1;" edge="1" parent="1" source="qj1Oe912X-09bVJ9G56S-51" target="qj1Oe912X-09bVJ9G56S-68">
          <mxGeometry relative="1" as="geometry" />
        </mxCell>
        <mxCell id="qj1Oe912X-09bVJ9G56S-51" value="" style="swimlane;startSize=0;" vertex="1" parent="1">
          <mxGeometry x="150" y="200" width="240" height="100" as="geometry" />
        </mxCell>
        <mxCell id="qj1Oe912X-09bVJ9G56S-68" value="EmptyTree" style="swimlane;fontStyle=0;childLayout=stackLayout;horizontal=1;startSize=30;horizontalStack=0;resizeParent=1;resizeParentMax=0;resizeLast=0;collapsible=1;marginBottom=0;whiteSpace=wrap;html=1;" vertex="1" parent="1">
          <mxGeometry x="200" y="330" width="140" height="150" as="geometry" />
        </mxCell>
        <mxCell id="qj1Oe912X-09bVJ9G56S-69" value="1#person" style="text;strokeColor=#d6b656;fillColor=#fff2cc;align=left;verticalAlign=middle;spacingLeft=4;spacingRight=4;overflow=hidden;points=[[0,0.5],[1,0.5]];portConstraint=eastwest;rotatable=0;whiteSpace=wrap;html=1;" vertex="1" parent="qj1Oe912X-09bVJ9G56S-68">
          <mxGeometry y="30" width="140" height="20" as="geometry" />
        </mxCell>
        <mxCell id="qj1Oe912X-09bVJ9G56S-70" value="2#person" style="text;strokeColor=#d6b656;fillColor=#fff2cc;align=left;verticalAlign=middle;spacingLeft=4;spacingRight=4;overflow=hidden;points=[[0,0.5],[1,0.5]];portConstraint=eastwest;rotatable=0;whiteSpace=wrap;html=1;" vertex="1" parent="qj1Oe912X-09bVJ9G56S-68">
          <mxGeometry y="50" width="140" height="20" as="geometry" />
        </mxCell>
        <mxCell id="qj1Oe912X-09bVJ9G56S-71" value="3#software" style="text;strokeColor=#d79b00;fillColor=#ffe6cc;align=left;verticalAlign=middle;spacingLeft=4;spacingRight=4;overflow=hidden;points=[[0,0.5],[1,0.5]];portConstraint=eastwest;rotatable=0;whiteSpace=wrap;html=1;" vertex="1" parent="qj1Oe912X-09bVJ9G56S-68">
          <mxGeometry y="70" width="140" height="20" as="geometry" />
        </mxCell>
        <mxCell id="qj1Oe912X-09bVJ9G56S-74" value="4#person" style="text;strokeColor=#d6b656;fillColor=#fff2cc;align=left;verticalAlign=middle;spacingLeft=4;spacingRight=4;overflow=hidden;points=[[0,0.5],[1,0.5]];portConstraint=eastwest;rotatable=0;whiteSpace=wrap;html=1;" vertex="1" parent="qj1Oe912X-09bVJ9G56S-68">
          <mxGeometry y="90" width="140" height="20" as="geometry" />
        </mxCell>
        <mxCell id="qj1Oe912X-09bVJ9G56S-73" value="5#software" style="text;strokeColor=#d79b00;fillColor=#ffe6cc;align=left;verticalAlign=middle;spacingLeft=4;spacingRight=4;overflow=hidden;points=[[0,0.5],[1,0.5]];portConstraint=eastwest;rotatable=0;whiteSpace=wrap;html=1;" vertex="1" parent="qj1Oe912X-09bVJ9G56S-68">
          <mxGeometry y="110" width="140" height="20" as="geometry" />
        </mxCell>
        <mxCell id="qj1Oe912X-09bVJ9G56S-72" value="6#person" style="text;strokeColor=#d6b656;fillColor=#fff2cc;align=left;verticalAlign=middle;spacingLeft=4;spacingRight=4;overflow=hidden;points=[[0,0.5],[1,0.5]];portConstraint=eastwest;rotatable=0;whiteSpace=wrap;html=1;" vertex="1" parent="qj1Oe912X-09bVJ9G56S-68">
          <mxGeometry y="130" width="140" height="20" as="geometry" />
        </mxCell>
        <mxCell id="qj1Oe912X-09bVJ9G56S-89" style="edgeStyle=orthogonalEdgeStyle;rounded=0;orthogonalLoop=1;jettySize=auto;html=1;entryX=0.5;entryY=0;entryDx=0;entryDy=0;" edge="1" parent="1" source="qj1Oe912X-09bVJ9G56S-75" target="qj1Oe912X-09bVJ9G56S-82">
          <mxGeometry relative="1" as="geometry" />
        </mxCell>
        <mxCell id="qj1Oe912X-09bVJ9G56S-75" value="SourceEdgeTreePath" style="swimlane;fontStyle=0;childLayout=stackLayout;horizontal=1;startSize=30;horizontalStack=0;resizeParent=1;resizeParentMax=0;resizeLast=0;collapsible=1;marginBottom=0;whiteSpace=wrap;html=1;" vertex="1" parent="1">
          <mxGeometry x="475" y="330" width="140" height="70" as="geometry" />
        </mxCell>
        <mxCell id="qj1Oe912X-09bVJ9G56S-76" value="(1,2)" style="text;align=left;verticalAlign=middle;spacingLeft=4;spacingRight=4;overflow=hidden;points=[[0,0.5],[1,0.5]];portConstraint=eastwest;rotatable=0;whiteSpace=wrap;html=1;" vertex="1" parent="qj1Oe912X-09bVJ9G56S-75">
          <mxGeometry y="30" width="140" height="20" as="geometry" />
        </mxCell>
        <mxCell id="qj1Oe912X-09bVJ9G56S-77" value="(1,4)" style="text;strokeColor=default;fillColor=none;align=left;verticalAlign=middle;spacingLeft=4;spacingRight=4;overflow=hidden;points=[[0,0.5],[1,0.5]];portConstraint=eastwest;rotatable=0;whiteSpace=wrap;html=1;" vertex="1" parent="qj1Oe912X-09bVJ9G56S-75">
          <mxGeometry y="50" width="140" height="20" as="geometry" />
        </mxCell>
        <mxCell id="qj1Oe912X-09bVJ9G56S-82" value="EdgeTreePath" style="swimlane;fontStyle=0;childLayout=stackLayout;horizontal=1;startSize=30;horizontalStack=0;resizeParent=1;resizeParentMax=0;resizeLast=0;collapsible=1;marginBottom=0;whiteSpace=wrap;html=1;" vertex="1" parent="1">
          <mxGeometry x="475" y="430" width="140" height="70" as="geometry" />
        </mxCell>
        <mxCell id="qj1Oe912X-09bVJ9G56S-83" value="2#person" style="text;strokeColor=#d6b656;fillColor=#fff2cc;align=left;verticalAlign=middle;spacingLeft=4;spacingRight=4;overflow=hidden;points=[[0,0.5],[1,0.5]];portConstraint=eastwest;rotatable=0;whiteSpace=wrap;html=1;" vertex="1" parent="qj1Oe912X-09bVJ9G56S-82">
          <mxGeometry y="30" width="140" height="20" as="geometry" />
        </mxCell>
        <mxCell id="qj1Oe912X-09bVJ9G56S-84" value="4#person" style="text;strokeColor=#d6b656;fillColor=#fff2cc;align=left;verticalAlign=middle;spacingLeft=4;spacingRight=4;overflow=hidden;points=[[0,0.5],[1,0.5]];portConstraint=eastwest;rotatable=0;whiteSpace=wrap;html=1;" vertex="1" parent="qj1Oe912X-09bVJ9G56S-82">
          <mxGeometry y="50" width="140" height="20" as="geometry" />
        </mxCell>
      </root>
    </mxGraphModel>
  </diagram>
</mxfile>
